<svg width="1200" height="760" viewBox="0 0 1200 760" fill="none" xmlns="http://www.w3.org/2000/svg">
  <rect width="1200" height="760" rx="12" fill="#0a0a0c"/>

  <!-- Header -->
  <text x="40" y="48" fill="#f0f0f3" font-family="sans-serif" font-size="24" font-weight="700">DORA Metrics</text>
  <text x="40" y="72" fill="#a0a0a8" font-family="sans-serif" font-size="13">Software delivery performance based on DORA research</text>

  <!-- Range Selector -->
  <rect x="940" y="28" width="44" height="28" rx="14" fill="#16161a" stroke="#252530"/>
  <text x="951" y="47" fill="#a0a0a8" font-family="sans-serif" font-size="11">7d</text>
  <rect x="990" y="28" width="44" height="28" rx="14" fill="#16161a" stroke="#252530"/>
  <text x="999" y="47" fill="#a0a0a8" font-family="sans-serif" font-size="11">14d</text>
  <rect x="1040" y="28" width="44" height="28" rx="14" fill="#22d3ee" fill-opacity="0.15" stroke="#22d3ee" stroke-opacity="0.4"/>
  <text x="1049" y="47" fill="#22d3ee" font-family="sans-serif" font-size="11">30d</text>
  <rect x="1090" y="28" width="44" height="28" rx="14" fill="#16161a" stroke="#252530"/>
  <text x="1099" y="47" fill="#a0a0a8" font-family="sans-serif" font-size="11">90d</text>

  <!-- Overall Rating Banner -->
  <rect x="40" y="92" width="1120" height="64" rx="12" fill="#10b981" fill-opacity="0.1" stroke="#10b981" stroke-opacity="0.3"/>
  <text x="64" y="124" fill="#10b981" font-family="sans-serif" font-size="22" font-weight="800" letter-spacing="2">ELITE</text>
  <text x="170" y="124" fill="#a0a0a8" font-family="sans-serif" font-size="13">Overall Rating  ·  Top performers worldwide</text>
  <text x="1100" y="124" fill="#606068" font-family="sans-serif" font-size="12" text-anchor="end">Jan 6 - Feb 5, 2026</text>

  <!-- Four Metric Cards -->
  <!-- Deploy Frequency -->
  <rect x="40" y="176" width="268" height="210" rx="12" fill="#111115" stroke="#252530"/>
  <rect x="56" y="192" width="32" height="32" rx="8" fill="#22d3ee" fill-opacity="0.15"/>
  <text x="66" y="214" fill="#22d3ee" font-family="sans-serif" font-size="16" font-weight="700">R</text>
  <text x="98" y="208" fill="#f0f0f3" font-family="sans-serif" font-size="13" font-weight="600">Deploy Frequency</text>
  <text x="260" y="208" fill="#34d399" font-family="sans-serif" font-size="11" text-anchor="end">+8%</text>
  <text x="56" y="268" fill="#f0f0f3" font-family="sans-serif" font-size="40" font-weight="700">12.4</text>
  <text x="56" y="290" fill="#a0a0a8" font-family="sans-serif" font-size="12">deployments / week</text>
  <rect x="56" y="302" width="42" height="18" rx="4" fill="#10b981" fill-opacity="0.15"/>
  <text x="64" y="315" fill="#10b981" font-family="sans-serif" font-size="10" font-weight="600">ELITE</text>
  <text x="56" y="346" fill="#606068" font-family="sans-serif" font-size="10">48 total (46 success, 2 failed)</text>
  <text x="56" y="370" fill="#606068" font-family="sans-serif" font-size="9">Elite: 7+/wk  ·  High: 1-7/wk</text>

  <!-- Lead Time -->
  <rect x="324" y="176" width="268" height="210" rx="12" fill="#111115" stroke="#252530"/>
  <rect x="340" y="192" width="32" height="32" rx="8" fill="#a78bfa" fill-opacity="0.15"/>
  <text x="350" y="214" fill="#a78bfa" font-family="sans-serif" font-size="16" font-weight="700">T</text>
  <text x="382" y="208" fill="#f0f0f3" font-family="sans-serif" font-size="13" font-weight="600">Lead Time</text>
  <text x="544" y="208" fill="#34d399" font-family="sans-serif" font-size="11" text-anchor="end">-15%</text>
  <text x="340" y="268" fill="#f0f0f3" font-family="sans-serif" font-size="40" font-weight="700">4.2h</text>
  <text x="340" y="290" fill="#a0a0a8" font-family="sans-serif" font-size="12">AI session to merge</text>
  <rect x="340" y="302" width="42" height="18" rx="4" fill="#10b981" fill-opacity="0.15"/>
  <text x="348" y="315" fill="#10b981" font-family="sans-serif" font-size="10" font-weight="600">ELITE</text>
  <text x="340" y="346" fill="#606068" font-family="sans-serif" font-size="10">Based on 46 deployments</text>
  <text x="340" y="370" fill="#606068" font-family="sans-serif" font-size="9">Elite: &lt;1d  ·  High: 1d-1wk</text>

  <!-- Change Failure Rate -->
  <rect x="608" y="176" width="268" height="210" rx="12" fill="#111115" stroke="#252530"/>
  <rect x="624" y="192" width="32" height="32" rx="8" fill="#f472b6" fill-opacity="0.15"/>
  <text x="636" y="214" fill="#f472b6" font-family="sans-serif" font-size="16" font-weight="700">!</text>
  <text x="666" y="208" fill="#f0f0f3" font-family="sans-serif" font-size="13" font-weight="600">Change Failure Rate</text>
  <text x="828" y="208" fill="#34d399" font-family="sans-serif" font-size="11" text-anchor="end">-0.4%</text>
  <text x="624" y="268" fill="#f0f0f3" font-family="sans-serif" font-size="40" font-weight="700">2.1%</text>
  <text x="624" y="290" fill="#a0a0a8" font-family="sans-serif" font-size="12">failure ratio</text>
  <rect x="624" y="302" width="42" height="18" rx="4" fill="#10b981" fill-opacity="0.15"/>
  <text x="632" y="315" fill="#10b981" font-family="sans-serif" font-size="10" font-weight="600">ELITE</text>
  <text x="624" y="346" fill="#606068" font-family="sans-serif" font-size="10">1/48 deployments failed</text>
  <text x="624" y="370" fill="#606068" font-family="sans-serif" font-size="9">Elite: &lt;5%  ·  High: 5-10%</text>

  <!-- MTTR -->
  <rect x="892" y="176" width="268" height="210" rx="12" fill="#111115" stroke="#252530"/>
  <rect x="908" y="192" width="32" height="32" rx="8" fill="#34d399" fill-opacity="0.15"/>
  <text x="918" y="214" fill="#34d399" font-family="sans-serif" font-size="16" font-weight="700">W</text>
  <text x="950" y="208" fill="#f0f0f3" font-family="sans-serif" font-size="13" font-weight="600">MTTR</text>
  <text x="1112" y="208" fill="#34d399" font-family="sans-serif" font-size="11" text-anchor="end">-22%</text>
  <text x="908" y="268" fill="#f0f0f3" font-family="sans-serif" font-size="40" font-weight="700">0.8h</text>
  <text x="908" y="290" fill="#a0a0a8" font-family="sans-serif" font-size="12">mean time to restore</text>
  <rect x="908" y="302" width="42" height="18" rx="4" fill="#10b981" fill-opacity="0.15"/>
  <text x="916" y="315" fill="#10b981" font-family="sans-serif" font-size="10" font-weight="600">ELITE</text>
  <text x="908" y="346" fill="#606068" font-family="sans-serif" font-size="10">2 resolved, 0 open</text>
  <text x="908" y="370" fill="#606068" font-family="sans-serif" font-size="9">Elite: &lt;1h  ·  High: &lt;1d</text>

  <!-- Deployment Activity Chart -->
  <rect x="40" y="406" width="1120" height="260" rx="12" fill="#111115" stroke="#252530"/>
  <text x="64" y="440" fill="#f0f0f3" font-family="sans-serif" font-size="15" font-weight="600">Deployment Activity</text>

  <!-- Legend -->
  <rect x="980" y="426" width="10" height="10" rx="2" fill="#22d3ee"/>
  <text x="996" y="436" fill="#a0a0a8" font-family="sans-serif" font-size="10">Success</text>
  <rect x="1060" y="426" width="10" height="10" rx="2" fill="#fb7185"/>
  <text x="1076" y="436" fill="#a0a0a8" font-family="sans-serif" font-size="10">Failed</text>

  <!-- Y axis labels -->
  <text x="56" y="476" fill="#606068" font-family="monospace" font-size="9">4</text>
  <text x="56" y="516" fill="#606068" font-family="monospace" font-size="9">3</text>
  <text x="56" y="556" fill="#606068" font-family="monospace" font-size="9">2</text>
  <text x="56" y="596" fill="#606068" font-family="monospace" font-size="9">1</text>
  <text x="56" y="636" fill="#606068" font-family="monospace" font-size="9">0</text>

  <!-- Grid lines -->
  <line x1="76" y1="472" x2="1120" y2="472" stroke="#1a1a1f" stroke-dasharray="4"/>
  <line x1="76" y1="512" x2="1120" y2="512" stroke="#1a1a1f" stroke-dasharray="4"/>
  <line x1="76" y1="552" x2="1120" y2="552" stroke="#1a1a1f" stroke-dasharray="4"/>
  <line x1="76" y1="592" x2="1120" y2="592" stroke="#1a1a1f" stroke-dasharray="4"/>
  <line x1="76" y1="632" x2="1120" y2="632" stroke="#1a1a1f"/>

  <!-- Bar chart - daily deployments -->
  <rect x="100" y="512" width="24" height="120" rx="3" fill="#22d3ee"/>
  <rect x="140" y="552" width="24" height="80" rx="3" fill="#22d3ee"/>
  <rect x="180" y="472" width="24" height="160" rx="3" fill="#22d3ee"/>
  <rect x="220" y="552" width="24" height="80" rx="3" fill="#22d3ee"/>
  <rect x="260" y="512" width="24" height="120" rx="3" fill="#22d3ee"/>
  <rect x="300" y="592" width="24" height="40" rx="3" fill="#22d3ee"/>
  <rect x="340" y="592" width="24" height="40" rx="3" fill="#22d3ee"/>
  <rect x="380" y="472" width="24" height="160" rx="3" fill="#22d3ee"/>
  <rect x="420" y="552" width="24" height="80" rx="3" fill="#22d3ee"/>
  <rect x="460" y="512" width="24" height="120" rx="3" fill="#22d3ee"/>
  <rect x="500" y="552" width="24" height="80" rx="3" fill="#22d3ee"/>
  <rect x="500" y="532" width="24" height="20" rx="3" fill="#fb7185"/>
  <rect x="540" y="512" width="24" height="120" rx="3" fill="#22d3ee"/>
  <rect x="580" y="592" width="24" height="40" rx="3" fill="#22d3ee"/>
  <rect x="620" y="552" width="24" height="80" rx="3" fill="#22d3ee"/>
  <rect x="660" y="472" width="24" height="160" rx="3" fill="#22d3ee"/>
  <rect x="700" y="512" width="24" height="120" rx="3" fill="#22d3ee"/>
  <rect x="740" y="552" width="24" height="80" rx="3" fill="#22d3ee"/>
  <rect x="780" y="512" width="24" height="120" rx="3" fill="#22d3ee"/>
  <rect x="820" y="592" width="24" height="40" rx="3" fill="#22d3ee"/>
  <rect x="860" y="552" width="24" height="80" rx="3" fill="#22d3ee"/>
  <rect x="900" y="472" width="24" height="160" rx="3" fill="#22d3ee"/>
  <rect x="940" y="512" width="24" height="120" rx="3" fill="#22d3ee"/>
  <rect x="940" y="492" width="24" height="20" rx="3" fill="#fb7185"/>
  <rect x="980" y="552" width="24" height="80" rx="3" fill="#22d3ee"/>
  <rect x="1020" y="512" width="24" height="120" rx="3" fill="#22d3ee"/>
  <rect x="1060" y="472" width="24" height="160" rx="3" fill="#22d3ee"/>

  <!-- X axis dates -->
  <text x="96" y="652" fill="#606068" font-family="monospace" font-size="8">Jan 8</text>
  <text x="256" y="652" fill="#606068" font-family="monospace" font-size="8">Jan 12</text>
  <text x="416" y="652" fill="#606068" font-family="monospace" font-size="8">Jan 16</text>
  <text x="576" y="652" fill="#606068" font-family="monospace" font-size="8">Jan 20</text>
  <text x="736" y="652" fill="#606068" font-family="monospace" font-size="8">Jan 24</text>
  <text x="896" y="652" fill="#606068" font-family="monospace" font-size="8">Jan 28</text>
  <text x="1056" y="652" fill="#606068" font-family="monospace" font-size="8">Feb 1</text>

  <!-- Bottom Nav -->
  <rect x="0" y="724" width="1200" height="36" fill="#0a0a0c"/>
  <line x1="0" y1="724" x2="1200" y2="724" stroke="#252530"/>
  <text x="34" y="746" fill="#606068" font-family="sans-serif" font-size="10">Dashboard</text>
  <rect x="110" y="730" width="50" height="24" rx="6" fill="#4d8efa" fill-opacity="0.15"/>
  <text x="122" y="746" fill="#4d8efa" font-family="sans-serif" font-size="10" font-weight="500">DORA</text>
  <text x="200" y="746" fill="#606068" font-family="sans-serif" font-size="10">Team</text>
  <text x="270" y="746" fill="#606068" font-family="sans-serif" font-size="10">Settings</text>
</svg>
